<svg width="37" height="36" viewBox="0 0 37 36" fill="none" xmlns="http://www.w3.org/2000/svg">
<path d="M29.4049 7.99501C27.4099 7.06501 25.2499 6.39001 22.9999 6.00001C22.9802 5.99938 22.9606 6.00308 22.9424 6.01085C22.9243 6.01863 22.9081 6.03029 22.8949 6.04501C22.6249 6.54001 22.3099 7.18501 22.0999 7.68001C19.7134 7.32001 17.2864 7.32001 14.8999 7.68001C14.6899 7.17001 14.3749 6.54001 14.0899 6.04501C14.0749 6.01501 14.0299 6.00001 13.9849 6.00001C11.7349 6.39001 9.58993 7.06501 7.57993 7.99501C7.56493 7.99501 7.54993 8.01001 7.53493 8.02501C3.45493 14.13 2.32993 20.07 2.88493 25.95C2.88493 25.98 2.89993 26.01 2.92993 26.025C5.62993 28.005 8.22493 29.205 10.7899 30C10.8349 30.015 10.8799 30 10.8949 29.97C11.4949 29.145 12.0349 28.275 12.4999 27.36C12.5299 27.3 12.4999 27.24 12.4399 27.225C11.5849 26.895 10.7749 26.505 9.97993 26.055C9.91993 26.025 9.91993 25.935 9.96493 25.89C10.1299 25.77 10.2949 25.635 10.4599 25.515C10.4899 25.485 10.5349 25.485 10.5649 25.5C15.7249 27.855 21.2899 27.855 26.3899 25.5C26.4199 25.485 26.4649 25.485 26.4949 25.515C26.6599 25.65 26.8249 25.77 26.9899 25.905C27.0499 25.95 27.0499 26.04 26.9749 26.07C26.1949 26.535 25.3699 26.91 24.5149 27.24C24.4549 27.255 24.4399 27.33 24.4549 27.375C24.9349 28.29 25.4749 29.16 26.0599 29.985C26.1049 30 26.1499 30.015 26.1949 30C28.7749 29.205 31.3699 28.005 34.0699 26.025C34.0999 26.01 34.1149 25.98 34.1149 25.95C34.7749 19.155 33.0199 13.26 29.4649 8.02501C29.4499 8.01001 29.4349 7.99501 29.4049 7.99501ZM13.2799 22.365C11.7349 22.365 10.4449 20.94 10.4449 19.185C10.4449 17.43 11.7049 16.005 13.2799 16.005C14.8699 16.005 16.1299 17.445 16.1149 19.185C16.1149 20.94 14.8549 22.365 13.2799 22.365ZM23.7349 22.365C22.1899 22.365 20.8999 20.94 20.8999 19.185C20.8999 17.43 22.1599 16.005 23.7349 16.005C25.3249 16.005 26.5849 17.445 26.5699 19.185C26.5699 20.94 25.3249 22.365 23.7349 22.365Z" fill="#322933"/>
</svg>
