<svg width="1920" height="2766" viewBox="0 0 1920 2766" fill="none" xmlns="http://www.w3.org/2000/svg">
<g opacity="0.6" filter="url(#filter0_f_45_199)">
<path d="M1100 408C1100 633.332 888.455 816 627.5 816C366.545 816 155 633.332 155 408C155 182.668 366.545 0 627.5 0C888.455 0 1100 182.668 1100 408Z" fill="#B4BEFD"/>
<path d="M1129 873C1129 1044.21 910.963 1183 642 1183C373.037 1183 155 1044.21 155 873C155 701.792 373.037 563 642 563C910.963 563 1129 701.792 1129 873Z" fill="#85F6E3"/>
<path d="M1849.25 457.5C1849.25 710.17 1643.97 915 1390.75 915C1137.53 915 932.25 710.17 932.25 457.5C932.25 204.83 1137.53 0 1390.75 0C1643.97 0 1849.25 204.83 1849.25 457.5Z" fill="#D8BBFE"/>
<path d="M1849 940.5C1849 1074.43 1620.22 1183 1338 1183C1055.78 1183 827 1074.43 827 940.5C827 806.571 1055.78 698 1338 698C1620.22 698 1849 806.571 1849 940.5Z" fill="#FEEBBB"/>
<path d="M904.25 1958C904.25 1732.67 1115.8 1550 1376.75 1550C1637.7 1550 1849.25 1732.67 1849.25 1958C1849.25 2183.33 1637.7 2366 1376.75 2366C1115.8 2366 904.25 2183.33 904.25 1958Z" fill="#B4BEFD"/>
<path d="M875.25 1493C875.25 1321.79 1093.29 1183 1362.25 1183C1631.21 1183 1849.25 1321.79 1849.25 1493C1849.25 1664.21 1631.21 1803 1362.25 1803C1093.29 1803 875.25 1664.21 875.25 1493Z" fill="#85F6E3"/>
<path d="M155 1908.5C155 1655.83 360.277 1451 613.5 1451C866.723 1451 1072 1655.83 1072 1908.5C1072 2161.17 866.723 2366 613.5 2366C360.277 2366 155 2161.17 155 1908.5Z" fill="#D8BBFE"/>
<path d="M155.25 1425.5C155.25 1291.57 384.033 1183 666.25 1183C948.467 1183 1177.25 1291.57 1177.25 1425.5C1177.25 1559.43 948.467 1668 666.25 1668C384.033 1668 155.25 1559.43 155.25 1425.5Z" fill="#FEEBBB"/>
</g>
<defs>
<filter id="filter0_f_45_199" x="-245" y="-400" width="2494.25" height="3166" filterUnits="userSpaceOnUse" color-interpolation-filters="sRGB">
<feFlood flood-opacity="0" result="BackgroundImageFix"/>
<feBlend mode="normal" in="SourceGraphic" in2="BackgroundImageFix" result="shape"/>
<feGaussianBlur stdDeviation="200" result="effect1_foregroundBlur_45_199"/>
</filter>
</defs>
</svg>
