<svg width="130" height="48" viewBox="0 0 130 48" fill="none" xmlns="http://www.w3.org/2000/svg">
<path fill-rule="evenodd" clip-rule="evenodd" d="M116.643 0.533738C116.036 1.13729 115.967 1.6092 116.372 2.38845C116.953 3.5041 118.707 3.44689 119.191 2.29663C119.524 1.50646 119.374 0.843102 118.756 0.359891C118.071 -0.174973 117.293 -0.110913 116.643 0.533738ZM110.851 1.52145C110.466 1.87525 110.329 2.33735 109.959 4.52995C109.32 8.31528 109.517 8.0398 106.476 9.41445C103.743 10.6501 103.047 11.1736 103.047 11.9956C103.047 12.8491 103.522 13.2537 106.132 14.6231C107.518 15.3502 108.767 16.1257 108.908 16.3464C109.048 16.5671 109.305 17.9556 109.479 19.4321C109.879 22.8187 110.117 23.3019 111.393 23.3141C111.915 23.3191 112.331 23.016 114.307 21.1909C116.179 19.4627 116.717 19.0618 117.169 19.0618C117.475 19.0618 118.755 19.2701 120.014 19.5247C121.273 19.7792 122.57 19.9875 122.897 19.9875C123.658 19.9875 124.364 19.2758 124.364 18.5081C124.364 18.1959 123.818 16.847 123.121 15.439C122.438 14.0574 121.878 12.7499 121.878 12.5335C121.878 12.3172 122.508 11.0289 123.277 9.6705C124.988 6.64719 125.075 5.88035 123.783 5.19682C123.439 5.01501 122.854 5.04482 120.739 5.35178C116.954 5.90108 117.283 5.97421 115.596 4.20799C112.531 0.998804 112.654 1.10341 111.955 1.10341C111.539 1.10341 111.142 1.25374 110.851 1.52145ZM117.33 1.39778C117.178 1.7899 117.347 2.0291 117.776 2.0291C118.243 2.0291 118.422 1.70751 118.143 1.37297C117.846 1.01861 117.472 1.03009 117.33 1.39778ZM111.544 2.3779C111.488 2.46769 111.224 3.77718 110.958 5.28753C110.692 6.79808 110.405 8.16162 110.32 8.31769C109.977 8.94994 109.174 9.44907 106.729 10.5499C104.84 11.4008 104.166 11.7907 104.166 12.0319C104.166 12.2584 104.698 12.6296 105.89 13.2352C108.78 14.7027 109.693 15.3094 109.997 15.9615C110.15 16.2922 110.418 17.7679 110.591 19.241C110.764 20.7144 110.947 21.9848 110.996 22.0644C111.248 22.4689 111.891 22.042 113.585 20.3446C114.608 19.3192 115.672 18.3611 115.949 18.2156C116.66 17.8423 117.55 17.8855 120.061 18.4148C122.524 18.9339 123.118 18.978 123.229 18.6493C123.271 18.5242 122.724 17.2121 122.015 15.7334C120.416 12.403 120.415 12.4252 122.23 9.21932C123.531 6.91879 123.726 6.41299 123.387 6.20545C123.295 6.14861 122.099 6.26803 120.73 6.47112C117.767 6.91083 117.175 6.92619 116.503 6.5811C116.222 6.43724 115.128 5.39584 114.071 4.26687C112.265 2.33847 111.79 1.983 111.544 2.3779ZM104.419 3.32359C103.428 3.72034 103.128 5.01168 103.839 5.81425C104.482 6.53907 105.276 6.61109 105.996 6.00957C106.828 5.31419 106.837 4.30501 106.016 3.61925C105.416 3.11808 105.085 3.05662 104.419 3.32359ZM104.772 4.37425C104.432 4.50884 104.486 5.11684 104.849 5.25532C105.238 5.40343 105.526 5.13461 105.442 4.70231C105.372 4.34481 105.136 4.22947 104.772 4.37425ZM97.6159 6.5187C97.4609 6.64608 97.1889 6.98303 97.0112 7.26759C96.8335 7.55215 96.4878 7.86059 96.2432 7.95297C95.198 8.3475 95.1941 9.58608 96.236 10.1965C96.5852 10.4011 97.0412 10.8548 97.2491 11.2049C97.5614 11.7305 97.7372 11.8414 98.2572 11.8414C98.8781 11.8414 99.5044 11.3936 99.5044 10.9498C99.5044 10.8319 99.8383 10.5258 100.247 10.27C101.385 9.55627 101.434 8.36527 100.342 7.95297C100.097 7.86059 99.7514 7.55215 99.5738 7.26759C99.1401 6.57295 98.7668 6.28728 98.2925 6.28728C98.0753 6.28728 97.7708 6.39151 97.6159 6.5187ZM97.9155 7.96149C97.754 8.27141 97.4162 8.61799 97.1648 8.73185C96.5856 8.994 96.59 9.12434 97.1896 9.44315C97.4548 9.58404 97.8001 9.9458 97.9569 10.247L98.2421 10.7947L98.5895 10.3461C98.7804 10.0993 98.9387 9.84545 98.941 9.78177C98.9432 9.71808 99.2091 9.53905 99.5316 9.3839L100.118 9.10175L99.5348 8.8022C99.2139 8.63743 98.822 8.25419 98.6637 7.95038C98.5056 7.64657 98.3385 7.39811 98.2925 7.39811C98.2464 7.39811 98.0768 7.65175 97.9155 7.96149ZM94.1822 15.4433C93.1767 16.4416 93.886 18.1361 95.3093 18.1361C96.2186 18.1361 96.8941 17.4654 96.8941 16.5625C96.8941 15.6595 96.2186 14.9888 95.3093 14.9888C94.8471 14.9888 94.4981 15.1295 94.1822 15.4433ZM126.721 16.3823C126.086 17.0542 126.117 18.0463 126.792 18.623C127.506 19.2327 128.298 19.1957 128.978 18.5207C129.654 17.8495 129.673 17.2306 129.04 16.4841C128.403 15.7317 127.379 15.6869 126.721 16.3823ZM94.911 16.376C94.8465 16.5432 94.8831 16.7687 94.9923 16.8772C95.2765 17.1593 95.8146 16.9014 95.7404 16.5189C95.6578 16.0928 95.0604 15.9898 94.911 16.376ZM127.42 17.2638C127.272 17.6463 127.56 17.9969 127.96 17.9204C128.456 17.8257 128.419 17.1332 127.915 17.0618C127.697 17.031 127.474 17.1218 127.42 17.2638ZM0.5 17.751C0.5 17.8449 1.04965 17.9799 1.72124 18.0513C2.39301 18.1228 3.06423 18.302 3.21283 18.4496C3.44421 18.6793 3.48318 20.7181 3.48318 32.5675C3.48318 43.5297 3.43396 46.4577 3.24658 46.6119C3.11662 46.7191 2.42434 46.9168 1.70837 47.051C0.528152 47.2726 1.23237 47.3041 9.2631 47.388C17.2295 47.4713 18.1793 47.513 18.7148 47.8038C19.0558 47.9889 19.3565 48.0528 19.4184 47.9532C19.4781 47.8575 19.9429 45.9208 20.4515 43.6495C20.9604 41.378 21.4119 39.3737 21.4552 39.1956C21.4984 39.0175 21.4707 38.8716 21.3933 38.8716C21.3161 38.8716 20.6838 40.0723 19.9886 41.5397C18.5292 44.6191 17.49 46.0537 16.306 46.623C15.5537 46.9844 15.1788 47.0177 11.8518 47.0177C9.27485 47.0177 8.15392 46.9531 7.99525 46.7955C7.82521 46.6267 7.77151 43.2094 7.77151 32.5464C7.77151 16.6165 7.57332 18.285 9.49318 18.0537C10.0812 17.983 10.6106 17.8477 10.6695 17.7529C10.7346 17.6483 8.75857 17.5807 5.63835 17.5807C2.63335 17.5807 0.5 17.6514 0.5 17.751ZM119.628 23.173C119.467 23.3048 119.196 23.6364 119.025 23.91C118.855 24.1835 118.483 24.5175 118.199 24.6523C117.294 25.0818 117.392 26.4494 118.356 26.8461C118.721 26.9963 119.038 27.3168 119.199 27.6995C119.638 28.744 120.765 28.7931 121.441 27.7974C121.669 27.461 122.134 27 122.473 26.773C122.97 26.4403 123.09 26.237 123.09 25.7268C123.09 25.2166 122.97 25.0133 122.473 24.6806C122.134 24.4536 121.67 23.9921 121.442 23.6551C120.984 22.9788 120.139 22.7542 119.628 23.173ZM120.044 24.5319C119.925 24.7913 119.576 25.1453 119.269 25.3188C118.59 25.7029 118.578 25.7935 119.175 26.0636C119.432 26.1797 119.791 26.5183 119.973 26.8158L120.305 27.3569L120.915 26.6345C121.251 26.237 121.648 25.9119 121.796 25.9119C122.228 25.9119 122.095 25.6624 121.451 25.2623C121.122 25.0577 120.77 24.7035 120.669 24.4755C120.432 23.9415 120.31 23.9526 120.044 24.5319ZM63.7679 26.7349L62.1214 28.8536L60.9671 28.864C59.5598 28.8764 59.2672 29.1726 60.4864 29.3503C60.9755 29.4216 61.5645 29.5499 61.7951 29.6354L62.2146 29.7906V37.3466C62.2146 44.8148 62.2195 44.9123 62.6341 45.7273C63.3559 47.146 64.8967 47.8558 66.9698 47.7248C68.5505 47.6248 69.4447 47.1175 70.1853 45.9006C70.5187 45.3531 70.7879 44.7764 70.784 44.6191C70.7799 44.4619 70.6639 44.5902 70.5263 44.9044C69.7272 46.7265 67.2277 46.8789 66.2285 45.1663C65.8655 44.5441 65.8504 44.2166 65.8504 36.9277V29.337L68.4217 29.2855C71.7916 29.218 71.6592 28.8742 68.2632 28.8742H65.7571V26.7451C65.7571 25.5741 65.6801 24.616 65.5858 24.616C65.4916 24.616 64.6735 25.5694 63.7679 26.7349ZM111.708 26.1813C111.392 26.4949 111.251 26.8415 111.251 27.3005C111.251 27.7594 111.392 28.106 111.708 28.4196C112.714 29.4181 114.42 28.7138 114.42 27.3005C114.42 25.8871 112.714 25.1829 111.708 26.1813ZM112.437 27.114C112.373 27.2812 112.409 27.5067 112.519 27.6152C112.803 27.8974 113.341 27.6395 113.267 27.257C113.184 26.8308 112.587 26.7278 112.437 27.114ZM47.914 28.8384C45.5375 29.6788 44.4891 30.9982 44.3539 33.3193C44.158 36.6785 45.6744 38.3469 50.4385 40.0143C52.5239 40.7441 53.3014 41.1448 54.204 41.9544C55.5011 43.1181 55.652 45.118 54.5378 46.3781C53.8315 47.1769 52.3267 47.6657 51.1606 47.4748C49.1781 47.1505 47.1037 45.4922 45.7965 43.1868C45.0708 41.907 45.0883 41.9305 44.9589 42.059C44.9026 42.1149 45.1124 43.382 45.4251 44.8749C45.7377 46.3679 45.9935 47.6274 45.9935 47.6738C45.9935 47.9206 46.4483 47.6838 47.1035 47.0962L47.8416 46.434L49.2368 47.1186C50.6026 47.789 50.6688 47.8018 52.3681 47.7222C53.7752 47.6562 54.2855 47.5483 55.0621 47.1516C57.6509 45.8291 58.6475 42.6744 57.3065 40.0467C56.4584 38.3847 54.9787 37.3781 51.9519 36.4039C48.4938 35.2909 47.3457 34.4957 46.9174 32.9165C46.2527 30.4654 48.6016 28.3271 51.4556 28.7851C53.8628 29.1715 55.6839 30.7602 57.2877 33.8729C57.6442 34.5649 57.8351 34.7864 57.8836 34.5644C57.9498 34.2606 56.8395 28.7042 56.6734 28.5081C56.6321 28.4594 56.15 28.6605 55.602 28.9549L54.6054 29.4903L53.6091 29.0547C52.2271 28.4507 49.3226 28.3404 47.914 28.8384ZM81.6985 28.9395C80.2293 29.6203 78.9609 31.2311 78.3242 33.2249C78.1085 33.9005 78.0866 33.7339 78.0753 31.3272C78.0684 29.8763 77.9955 28.689 77.9131 28.689C77.4865 28.689 72.3515 30.0279 72.1995 30.1788C72.0869 30.2906 72.4115 30.3553 73.0864 30.3553H74.1513L74.1026 38.638L74.0541 46.9207L73.1502 47.049C72.6531 47.1195 72.1986 47.2247 72.1404 47.2826C72.0821 47.3406 74.0409 47.378 76.4934 47.3658C79.8035 47.3493 80.7365 47.2986 80.1137 47.169C79.6522 47.0729 79.023 46.934 78.7153 46.8603L78.156 46.7263L78.1025 41.3641C78.0462 35.7213 78.17 34.2771 78.8436 32.7223C79.3877 31.4665 80.4713 30.5404 81.3965 30.5404C82.3431 30.5404 82.5873 30.8649 82.7395 32.3244C82.927 34.123 83.7922 34.7636 85.2284 34.1678C87.0824 33.3986 86.7869 29.9243 84.782 28.9204C83.7237 28.3906 82.8718 28.3958 81.6985 28.9395ZM94.0974 28.789C91.1675 29.6008 88.9316 32.0219 88.0206 35.3688C87.5743 37.0088 87.5737 40.2515 88.0197 41.7357C89.1231 45.4089 91.4709 47.3963 95.2299 47.8394C96.5568 47.9958 98.6382 47.577 99.8866 46.9022C101.715 45.9139 103.353 43.6136 103.536 41.775L103.613 41.0007L103.361 41.7413C102.937 42.99 102.535 43.6119 101.659 44.3778C99.3937 46.3579 95.5116 46.0833 93.3852 43.7924C92.0683 42.3737 91.4601 40.7791 91.2048 38.075L91.0709 36.655L97.3852 36.6061L103.7 36.5574L103.758 35.9507C103.92 34.278 102.819 31.6168 101.443 30.3577C100.117 29.1443 98.8295 28.6464 96.8171 28.5696C95.6805 28.5261 94.7852 28.5983 94.0974 28.789ZM25.9503 29.2646C24.9248 29.5595 23.7502 29.9022 23.34 30.0263L22.5942 30.2516L23.6197 30.3497L24.6451 30.4478L24.7384 37.3905L24.8316 44.3332L25.3242 45.2589C25.5951 45.768 25.9727 46.3223 26.1632 46.4906C27.4398 47.6189 29.6597 48.0295 31.5572 47.4887C32.8886 47.1094 33.9577 46.5199 35.4857 45.323C36.1155 44.8296 36.6782 44.4258 36.7364 44.4258C36.7943 44.4258 36.8663 45.0715 36.8963 45.8606L36.9508 47.2954L39.8407 47.3254C42.5592 47.3537 42.7956 47.2795 41.0993 46.9309L40.5865 46.8255V37.7573C40.5865 31.1134 40.5299 28.689 40.3747 28.689C40.0507 28.689 35.3108 30.0081 34.9931 30.1868C34.8113 30.289 35.0488 30.346 35.6723 30.3497C36.3709 30.3538 36.662 30.4347 36.7444 30.6482C36.8067 30.8092 36.8576 33.8436 36.8576 37.3913V43.8415L36.0905 44.4933C33.1364 47.0044 29.3384 46.4038 28.6724 43.3205C28.5442 42.7271 28.4673 39.8055 28.4673 35.5301C28.4673 29.1308 28.4463 28.6903 28.1411 28.7086C27.9617 28.7194 26.9758 28.9695 25.9503 29.2646ZM93.8078 29.4759C92.3867 30.4354 91.5399 32.3057 91.2085 35.2151L91.0874 36.2797H95.4624C99.3202 36.2797 99.851 36.2443 99.9532 35.9803C100.132 35.5186 99.7177 32.651 99.3243 31.6229C98.5828 29.6851 97.5198 28.8742 95.7217 28.8742C94.8749 28.8742 94.5456 28.9776 93.8078 29.4759ZM107.105 43.0493C106.124 43.578 105.686 45.1928 106.195 46.4093C106.487 47.1073 107.493 47.7584 108.279 47.7575C109.561 47.7562 110.691 46.5858 110.691 45.2589C110.691 43.4162 108.7 42.1897 107.105 43.0493Z" fill="#322933"/>
</svg>
